# xmcd
#
# Track frame offsets: 
#        150
#        20883
#        41048
#        56140
#        77850
#        95556
#        113262
#        128054
#        151089
#        182031
#        196267
#        213602
#        231041
#        263464
#        278023
#        292663
#        310498
#        328024
#
# Disc length: 4645 seconds
#
# Revision: 0
# Processed by: cddbd v1.5.1PL0 Copyright (c) Steve Scherf et al.
# Submitted via: ExactAudioCopy v0.95a5
#
DISCID=f7122312
DTITLE=ERIC BIBB - An Evening With ERIC BIBB
DYEAR=1900
DGENRE=Blues
TTITLE0=You're the one
TTITLE1=Something Much Greater
TTITLE2=Follow the Drinking Gourd
TTITLE3=Bring It On Home To Me
TTITLE4=A Better Man
TTITLE5=Angel
TTITLE6=Catch Up to YourHeart
TTITLE7=Done Laid Around
TTITLE8=Don't Every Let Nobody Drag Yo
TTITLE9=Keep My Cool
TTITLE10=Livin' Lovin' an' Doin'
TTITLE11=Me To You
TTITLE12=Satisfied Mind
TTITLE13=Singin' in My Heart
TTITLE14=Talk To Me
TTITLE15=Sail Away Ladies
TTITLE16=A Simple Song
TTITLE17=Where The Green Grass Grows
EXTD=
EXTT0=
EXTT1=
EXTT2=
EXTT3=
EXTT4=
EXTT5=
EXTT6=
EXTT7=
EXTT8=
EXTT9=
EXTT10=
EXTT11=
EXTT12=
EXTT13=
EXTT14=
EXTT15=
EXTT16=
EXTT17=
PLAYORDER=
